<svg class="fill-tq-color2 position-absolute tq-shape-bottom" xmlns="http://www.w3.org/2000/svg" fill="#39b44a8c" viewBox="0 0 528 450">
<g>
<path d="M526,238.11c0-77.96-0.02-155.92,0.08-233.88c0-3.17-0.29-4.23-3.96-4.22C349.37,0.12,176.63,0.12,3.88,0
	C0.21,0-0.08,1.06-0.08,4.23C0.02,82.52,0,160.81,0,239.11c7.78,21.03,24,30.67,45.27,33.16c4.2,0.49,4.67,2.73,4.73,6.06
	c0.39,22.14,11.45,37.76,30.17,48.43c13.24,7.55,27.66,10.46,42.81,9.64c3.82-0.21,6.11,0.96,7.84,4.54
	c12.26,25.31,31.61,43.43,56.98,55.22c10.88,5.06,22.06,9.46,32.54,15.35c17.31,9.75,33.26,21.04,43.66,38.6c0.33,0,0.67,0,1,0
	c5.68-10.26,13.77-18.33,22.99-25.38c13.75-10.51,28.97-18.42,44.9-24.92c29.09-11.87,51.54-30.88,65.42-59.38
	c1.45-2.98,3.4-4.05,6.67-3.91c8.56,0.36,16.95-0.89,25.16-3.31c27.38-8.06,46.93-30.09,45.2-55.68c-0.25-3.63,1.71-4.76,5.12-5.2
	C502.07,269.55,518.51,259.74,526,238.11z"></path>
</g>
</svg>