<svg fill="#fff" height="48" viewBox="0 0 48 48" width="48" xmlns="http://www.w3.org/2000/svg"><g clip-rule="evenodd" fill="#fff" fill-rule="evenodd"><path d="m9 10c-1.65685 0-3 1.3431-3 3v22c0 1.6569 1.34315 3 3 3h30c1.6569 0 3-1.3431 3-3v-17c0-.5523.4477-1 1-1s1 .4477 1 1v17c0 2.7614-2.2386 5-5 5h-30c-2.76142 0-5-2.2386-5-5v-22c0-2.7614 2.23858-5 5-5h22c.5523 0 1 .44772 1 1s-.4477 1-1 1z"></path><path d="m13.2929 16.2929c.3905-.3905 1.0237-.3905 1.4142 0l8.5858 8.5858c.3905.3905 1.0237.3905 1.4142 0l8.5858-8.5858c.3905-.3905 1.0237-.3905 1.4142 0s.3905 1.0237 0 1.4142l-8.5858 8.5858c-1.1716 1.1716-3.071 1.1716-4.2426 0l-8.5858-8.5858c-.3905-.3905-.3905-1.0237 0-1.4142z"></path><path d="m40 11c1.1046 0 2-.8954 2-2 0-1.10457-.8954-2-2-2s-2 .89543-2 2c0 1.1046.8954 2 2 2zm0 2c2.2091 0 4-1.7909 4-4 0-2.20914-1.7909-4-4-4s-4 1.79086-4 4c0 2.2091 1.7909 4 4 4z"></path></g></svg>