<svg viewBox="0 0 64 64" xmlns="http://www.w3.org/2000/svg" fill="#fff" data-name="Layer 1"><path d="m31.965 23.341h-2.992l2.965-2.991c1.005-1.014 1.302-2.534.757-3.873-.526-1.293-1.705-2.11-3.14-2.133-2.196 0-3.982 1.786-3.982 3.981 0 .552.448 1 1 1s1-.448 1-1c0-1.092.889-1.981 2.014-1.981.812.013 1.147.625 1.254.887.193.474.209 1.172-.325 1.71l-4.655 4.695c-.284.287-.368.716-.213 1.089s.519.615.923.615h5.392c.552 0 1-.448 1-1s-.448-1-1-1z"></path><path d="m37.2 24.34c0 .552.448 1 1 1s1-.448 1-1v-8.999c0-.429-.274-.811-.681-.948s-.856 0-1.115.342l-4.887 6.428c-.23.303-.269.709-.1 1.05s.516.556.896.556h3.887zm-1.871-3.571 1.871-2.46v2.46z"></path><path d="m49.348 26.73h-6.066c-.552 0-1 .448-1 1s.448 1 1 1h4.186l-5.015 7.441c-.309.458-.188 1.08.27 1.388.171.116.366.171.558.171.321 0 .637-.155.83-.441l6.066-9c.207-.307.228-.702.054-1.029-.173-.326-.513-.53-.883-.53z"></path><path d="m46.349 15.547c-.488-.257-1.093-.068-1.35.42l-10.128 19.279c-.257.489-.069 1.093.42 1.35.148.078.307.115.464.115.36 0 .708-.194.886-.535l10.128-19.279c.257-.489.069-1.093-.42-1.35z"></path><path d="m37.3 2c-11.493 0-21.285 7.795-23.974 18.782l-1.047-1.047c-1.398-1.399-3.838-1.399-5.238 0l-1.206 1.206c-.083.083-.153.173-.233.258-.023.019-.052.027-.074.049-.036.036-.052.083-.082.124-4.698 5.131-4.578 13.119.389 18.086l18.708 18.708c2.552 2.553 5.905 3.829 9.258 3.829s6.706-1.276 9.258-3.829l1.206-1.206c.7-.7 1.085-1.63 1.085-2.619s-.385-1.919-1.085-2.619l-1.047-1.047c10.987-2.689 18.782-12.48 18.782-23.974 0-13.62-11.081-24.7-24.7-24.7zm5.551 53.545-1.206 1.206c-4.326 4.326-11.363 4.325-15.688 0l-18.708-18.708c-3.981-3.981-4.288-10.254-.941-14.601l6.589 6.589c.195.195.451.293.707.293s.512-.098.707-.293c.391-.391.391-1.023 0-1.414l-6.662-6.662.806-.806c.322-.322.75-.499 1.205-.499s.883.177 1.205.499l6.232 6.231c.664.665.664 1.746 0 2.41l-1.51 1.51c-1.774 1.774-1.774 4.66 0 6.434l10.671 10.671c1.529 1.53 3.883 1.733 5.64.625l6.732 6.732c.195.195.451.293.707.293s.512-.098.707-.293c.391-.391.391-1.023 0-1.414l-6.648-6.648.806-.806c.664-.664 1.746-.664 2.41 0l6.239 6.24c.322.322.499.75.499 1.205s-.177.883-.499 1.205zm-1.317-6.555-3.508-3.508c-1.443-1.444-3.793-1.443-5.238 0l-1.51 1.51c-.995.995-2.612.994-3.606 0l-10.671-10.671c-.994-.994-.994-2.612 0-3.606l1.51-1.51c1.444-1.444 1.444-3.794 0-5.238l-3.501-3.5c2.026-10.726 11.311-18.466 22.29-18.466 12.517 0 22.7 10.183 22.7 22.7 0 10.978-7.74 20.264-18.466 22.29z"></path></svg>