<svg xmlns="http://www.w3.org/2000/svg" class="fill-theme position-absolute" viewBox="0 0 100 100">
                                    <g>
                                        <path d="M40.61,2.5c-11.75,8.41-18.84,19.25-19.44,33.65C20.7,47.44,24.41,57.39,32.1,65.68c9.14,9.85,20.59,14.35,33.93,13.19                                       c13.33-1.15,23.48-8.03,31.24-18.77c-1.52,7.41-4.72,14-9.52,19.79c-8.04,9.7-18.31,15.56-30.82,17.19                                       C29.3,100.67,5.76,80.58,3.02,54.81C0.03,26.61,20.34,6.35,40.61,2.5z" fill="#db9e30"/>
                                        <path d="M62.39,75.67c-9.15-0.19-17.33-3.09-24.41-9.03c-0.68-0.57-0.77-1.02-0.34-1.77C42,57.29,48.47,52.89,57.19,52.01                                       c11.23-1.14,21.31,5.65,25.26,15.39c0.74,1.83,0.76,1.83-0.97,2.86C75.62,73.78,69.27,75.56,62.39,75.67z" fill="#db9e30"/>
                                        <path d="M68.06,23.64c0.06,0.5-0.26,0.81-0.48,1.15c-2.14,3.23-6.29,4.91-10.09,4.1c-3.96-0.85-7.14-4.06-7.8-7.89                                       c-1.05-6.04,3.24-11.45,9.35-11.79c0.31-0.02,0.72-0.13,0.87,0.19c0.17,0.38-0.28,0.5-0.5,0.69c-2.63,2.28-3.62,5.65-2.54,8.69                                       c1.08,3.06,4.23,5.32,7.57,5.4c0.92,0.02,1.82-0.2,2.71-0.42C67.45,23.69,67.73,23.49,68.06,23.64z" fill="#db9e30"/>
                                        <path d="M59.46,48.49c-2.87-0.08-5.61,0.36-8.3,1.18c-1.22,0.37-1.31,0.29-1.06-0.94c0.89-4.36,4.88-7.56,9.4-7.54                                       c4.52,0.02,8.45,3.24,9.3,7.64c0.19,1,0.04,1.17-0.94,0.88C65.1,48.89,62.3,48.39,59.46,48.49z" fill="#db9e30"/>
                                        <path d="M61.43,35.12c0,0.99-0.01,1.97,0,2.96c0.01,0.6-0.22,0.92-0.87,0.91c-3.76-0.05-2.97,0.47-3.05-2.83                                       c-0.03-1.3,0.03-2.61-0.02-3.91c-0.02-0.79,0.29-1.05,1.06-1.04c3.37,0.07,2.82-0.35,2.88,2.75                                       C61.44,34.34,61.43,34.73,61.43,35.12C61.43,35.12,61.43,35.12,61.43,35.12z" fill="#db9e30"/>
                                    </g>
                                </svg>