<svg width="30" height="30" viewBox="0 0 30 30" fill="none" xmlns="http://www.w3.org/2000/svg">
<path d="M7.72519 6.2752C6.91269 6.2752 6.25019 6.93769 6.25019 7.75019V9.8877C6.25019 10.6002 5.9127 11.5127 5.4502 12.0502L3.7627 14.0377C3.3252 14.5502 3.3252 15.4377 3.7627 15.9502L5.4502 17.9377C5.9127 18.4877 6.25019 19.3877 6.25019 20.1002V22.2377C6.25019 23.0502 6.91269 23.7127 7.72519 23.7127H9.88769C10.6127 23.7127 11.5252 24.0502 12.0752 24.5252L14.0502 26.2252C14.5627 26.6627 15.4627 26.6627 15.9752 26.2252L17.9502 24.5252C18.5002 24.0627 19.4127 23.7127 20.1377 23.7127H22.2627C23.0752 23.7127 23.7377 23.0502 23.7377 22.2377V20.1127C23.7377 19.3877 24.0752 18.4752 24.5502 17.9252L26.2502 15.9502C26.6877 15.4377 26.6877 14.5377 26.2502 14.0252L24.5502 12.0502C24.0752 11.5002 23.7377 10.5877 23.7377 9.8627V7.75019C23.7377 6.93769 23.0752 6.2752 22.2627 6.2752H20.1377C19.4127 6.2752 18.5002 5.9377 17.9502 5.4627L15.9752 3.7627C15.4627 3.3252 14.5627 3.3252 14.0502 3.7627L12.0752 5.4752C11.5252 5.9377 10.6002 6.2752 9.88769 6.2752H7.72519Z" fill="url(#paint0_linear_624_236)"/>
<path d="M13.4877 18.9626C13.2377 18.9626 13.0002 18.8626 12.8252 18.6876L9.8002 15.6626C9.4377 15.3001 9.4377 14.7001 9.8002 14.3376C10.1627 13.9751 10.7627 13.9751 11.1252 14.3376L13.4877 16.7001L18.8627 11.3251C19.2252 10.9626 19.8252 10.9626 20.1877 11.3251C20.5502 11.6876 20.5502 12.2876 20.1877 12.6501L14.1502 18.6876C13.9752 18.8626 13.7377 18.9626 13.4877 18.9626Z" fill="white"/>
<path d="M15.0001 28.4375C14.2126 28.4375 13.4251 28.175 12.8126 27.65L10.8376 25.95C10.6376 25.775 10.1376 25.6 9.8751 25.6H7.7251C5.8751 25.6 4.3751 24.1 4.3751 22.25V20.1125C4.3751 19.85 4.2001 19.3625 4.0251 19.1625L2.3376 17.175C1.3126 15.9625 1.3126 14.05 2.3376 12.8375L4.0251 10.85C4.2001 10.65 4.3751 10.1625 4.3751 9.9V7.75C4.3751 5.9 5.8751 4.4 7.7251 4.4H9.8876C10.1501 4.4 10.6501 4.2125 10.8501 4.05L12.8251 2.35C14.0501 1.3 15.9626 1.3 17.1876 2.35L19.1626 4.05C19.3626 4.225 19.8626 4.4 20.1251 4.4H22.2501C24.1001 4.4 25.6001 5.9 25.6001 7.75V9.875C25.6001 10.1375 25.7876 10.6375 25.9626 10.8375L27.6626 12.8125C28.7126 14.0375 28.7126 15.95 27.6626 17.175L25.9626 19.15C25.7876 19.35 25.6001 19.85 25.6001 20.1125V22.2375C25.6001 24.0875 24.1001 25.5875 22.2501 25.5875H20.1251C19.8626 25.5875 19.3626 25.775 19.1626 25.9375L17.1876 27.6375C16.5751 28.175 15.7876 28.4375 15.0001 28.4375ZM7.7251 6.275C6.9126 6.275 6.2501 6.9375 6.2501 7.75V9.8875C6.2501 10.6 5.9126 11.5125 5.4501 12.05L3.7626 14.0375C3.3251 14.55 3.3251 15.4375 3.7626 15.95L5.4501 17.9375C5.9126 18.4875 6.2501 19.3875 6.2501 20.1V22.2375C6.2501 23.05 6.9126 23.7125 7.7251 23.7125H9.8876C10.6126 23.7125 11.5251 24.05 12.0751 24.525L14.0501 26.225C14.5626 26.6625 15.4626 26.6625 15.9751 26.225L17.9501 24.525C18.5001 24.0625 19.4126 23.7125 20.1376 23.7125H22.2626C23.0751 23.7125 23.7376 23.05 23.7376 22.2375V20.1125C23.7376 19.3875 24.0751 18.475 24.5501 17.925L26.2501 15.95C26.6876 15.4375 26.6876 14.5375 26.2501 14.025L24.5501 12.05C24.0751 11.5 23.7376 10.5875 23.7376 9.8625V7.75C23.7376 6.9375 23.0751 6.275 22.2626 6.275H20.1376C19.4126 6.275 18.5001 5.9375 17.9501 5.4625L15.9751 3.7625C15.4626 3.325 14.5626 3.325 14.0501 3.7625L12.0751 5.475C11.5251 5.9375 10.6001 6.275 9.8876 6.275H7.7251Z" fill="white"/>
<defs>
<linearGradient id="paint0_linear_624_236" x1="15.0064" y1="3.43457" x2="15.0064" y2="41.5002" gradientUnits="userSpaceOnUse">
<stop stop-color="#171201" stop-opacity="0.5"/>
<stop offset="1" stop-color="white" stop-opacity="0"/>
</linearGradient>
</defs>
</svg>
