<svg version="1.1" id="svg2055" xml:space="preserve" width="682.66669" height="682.66669" viewBox="0 0 682.66669 682.66669" xmlns="http://www.w3.org/2000/svg"><defs id="defs2059"><clipPath clipPathUnits="userSpaceOnUse" id="clipPath2073"><path d="M 0,512 H 512 V 0 H 0 Z" id="path2071"></path></clipPath></defs><g id="g2061" transform="matrix(1.3333333,0,0,-1.3333333,0,682.66667)"><g id="g2063" transform="translate(256.002,107.5928)"><path d="M 0,0 92.382,-47.597" style="fill:none;stroke:#000000;stroke-width:15;stroke-linecap:round;stroke-linejoin:round;stroke-miterlimit:10;stroke-dasharray:none;stroke-opacity:1" id="path2065"></path></g><g id="g2067"><g id="g2069" clip-path="url(#clipPath2073)"><g id="g2075" transform="translate(255.999,172.2031)"><path d="m 0,0 -243.464,100.096 c -2.385,0.98 -5.002,-0.773 -5.002,-3.352 V 65.613 c 0,-1.357 0.758,-2.6 1.964,-3.221 L -70.397,-28.34" style="fill:none;stroke:#000000;stroke-width:15;stroke-linecap:round;stroke-linejoin:round;stroke-miterlimit:10;stroke-dasharray:none;stroke-opacity:1" id="path2077"></path></g><g id="g2079" transform="translate(379.5791,43.9238)"><path d="m 0,0 45.684,-23.537 c 0.804,-0.414 1.736,-0.513 2.609,-0.275 l 27.491,7.467 c 0.768,0.208 1.583,0.158 2.32,-0.142 l 41.791,-17.058 c 2.383,-0.973 4.993,0.78 4.993,3.355 v 53.889 c 0,1.469 -0.887,2.793 -2.246,3.351 L -52.785,99.174" style="fill:none;stroke:#000000;stroke-width:15;stroke-linecap:round;stroke-linejoin:round;stroke-miterlimit:10;stroke-dasharray:none;stroke-opacity:1" id="path2081"></path></g><g id="g2083" transform="translate(9.7793,70.9741)"><path d="m 0,0 489.686,201.325 c 2.384,0.98 5.001,-0.773 5.001,-3.352 v -31.131 c 0,-1.357 -0.757,-2.6 -1.963,-3.221 L 76.958,-50.587 c -0.805,-0.414 -1.736,-0.513 -2.609,-0.276 l -27.492,7.467 c -0.767,0.209 -1.583,0.159 -2.319,-0.142 L 2.747,-60.595 c -2.384,-0.973 -4.993,0.78 -4.993,3.355 v 53.888 c 0,1.47 0.887,2.793 2.246,3.352 z" style="fill:none;stroke:#000000;stroke-width:15;stroke-linecap:round;stroke-linejoin:round;stroke-miterlimit:10;stroke-dasharray:none;stroke-opacity:1" id="path2085"></path></g><g id="g2087" transform="translate(266,143.0972)"><path d="m 0,0 c 0,-5.523 -4.478,-10 -10,-10 -5.522,0 -10,4.477 -10,10 0,5.523 4.478,10 10,10 C -4.478,10 0,5.523 0,0" style="fill:#000000;fill-opacity:1;fill-rule:nonzero;stroke:none" id="path2089"></path></g><g id="g2091" transform="translate(256,208.4199)"><path d="m 0,0 -205.528,80.97 c -3.146,1.239 -6.551,-1.08 -6.551,-4.461 V 50.975 L 0,-36.217 212.079,50.975 v 25.534 c 0,3.381 -3.405,5.7 -6.551,4.461 z" style="fill:none;stroke:#000000;stroke-width:15;stroke-linecap:round;stroke-linejoin:round;stroke-miterlimit:10;stroke-dasharray:none;stroke-opacity:1" id="path2093"></path></g><g id="g2095" transform="translate(149.4482,309.9321)"><path d="m 0,0 c -14.219,1.945 -28.625,2.348 -42.955,1.208 -10.287,-0.817 -23.044,-0.615 -32.51,3.561 -1.977,0.872 -4.202,-0.525 -4.202,-2.686 v -30.232 l 186.219,-73.363 v 47.735 c 0,0 -13.253,29.173 -73.385,46.585" style="fill:none;stroke:#000000;stroke-width:15;stroke-linecap:round;stroke-linejoin:round;stroke-miterlimit:10;stroke-dasharray:none;stroke-opacity:1" id="path2097"></path></g><g id="g2099" transform="translate(139.6553,283.291)"><path d="M 0,0 C 0,0 68.76,-14.03 116.345,-50.89" style="fill:none;stroke:#000000;stroke-width:15;stroke-linecap:round;stroke-linejoin:round;stroke-miterlimit:10;stroke-dasharray:none;stroke-opacity:1" id="path2101"></path></g><g id="g2103" transform="translate(442.2187,312.0146)"><path d="m 0,0 v -30.232 l -186.219,-73.363 v 47.736 c 0,0 15.972,35.158 92.406,51.317 18.752,3.965 37.995,5.187 57.101,3.668 10.287,-0.818 23.044,-0.616 32.51,3.56 C -2.225,3.559 0,2.162 0,0 Z" style="fill:none;stroke:#000000;stroke-width:15;stroke-linecap:round;stroke-linejoin:round;stroke-miterlimit:10;stroke-dasharray:none;stroke-opacity:1" id="path2105"></path></g><g id="g2107" transform="translate(372.3447,283.291)"><path d="M 0,0 C 0,0 -68.76,-14.03 -116.345,-50.89" style="fill:none;stroke:#000000;stroke-width:15;stroke-linecap:round;stroke-linejoin:round;stroke-miterlimit:10;stroke-dasharray:none;stroke-opacity:1" id="path2109"></path></g><g id="g2111" transform="translate(303.5596,452.8174)"><path d="m 0,0 c 0,-5.523 -4.478,-10 -10,-10 -5.523,0 -10,4.477 -10,10 0,5.523 4.477,10 10,10 C -4.478,10 0,5.523 0,0" style="fill:#000000;fill-opacity:1;fill-rule:nonzero;stroke:none" id="path2113"></path></g><g id="g2115" transform="translate(334.1777,452.8174)"><path d="m 0,0 c 0,-5.523 -4.477,-10 -10,-10 -5.522,0 -10,4.477 -10,10 0,5.523 4.478,10 10,10 C -4.477,10 0,5.523 0,0" style="fill:#000000;fill-opacity:1;fill-rule:nonzero;stroke:none" id="path2117"></path></g><g id="g2119" transform="translate(378.3437,435.1978)"><path d="M 0,0 V -86.025" style="fill:none;stroke:#000000;stroke-width:15;stroke-linecap:round;stroke-linejoin:round;stroke-miterlimit:10;stroke-dasharray:none;stroke-opacity:1" id="path2121"></path></g><g id="g2123" transform="translate(147.0088,435.1978)"><path d="M 0,0 V -86.025" style="fill:none;stroke:#000000;stroke-width:15;stroke-linecap:round;stroke-linejoin:round;stroke-miterlimit:10;stroke-dasharray:none;stroke-opacity:1" id="path2125"></path></g><g id="g2127" transform="translate(324.5977,392.6606)"><path d="m 0,0 c -11.548,-5.472 -31.677,-4.554 -36.021,10.17 -2.893,9.809 4.375,19.19 13.49,21.927 C -3.647,37.769 6.784,20.553 6.937,3.812 7.164,-20.914 -11.739,-31.806 -33.76,-33.939 c -12.856,-1.246 -25.615,3.071 -35.511,10.891" style="fill:none;stroke:#000000;stroke-width:15;stroke-linecap:round;stroke-linejoin:round;stroke-miterlimit:10;stroke-dasharray:none;stroke-opacity:1" id="path2129"></path></g><g id="g2131" transform="translate(245.7812,411.5166)"><path d="m 0,0 c 0.896,-4.418 1.791,-8.836 2.687,-13.254 1.674,-8.267 3.358,-16.634 2.976,-25.06 -0.383,-8.425 -3.051,-17.051 -8.99,-23.04 -10.059,-10.143 -34.873,-13.691 -47.489,-6.72 -13.32,7.36 -15.865,24.976 -3.805,34.791" style="fill:none;stroke:#000000;stroke-width:15;stroke-linecap:round;stroke-linejoin:round;stroke-miterlimit:10;stroke-dasharray:none;stroke-opacity:1" id="path2133"></path></g><g id="g2135" transform="translate(151.1191,501.5239)"><path d="m 0,0 c -10.49,2.404 -20.33,-7.28 -15.954,-18.577 3.885,-10.032 16.015,-10.943 25.196,-10.289 0,0 -14.009,-7.289 -26.705,-12.782" style="fill:none;stroke:#000000;stroke-width:15;stroke-linecap:round;stroke-linejoin:round;stroke-miterlimit:10;stroke-dasharray:none;stroke-opacity:1" id="path2137"></path></g></g></g></g></svg>